<?xml version="1.0" standalone="no"?>
<!DOCTYPE svg PUBLIC "-//W3C//DTD SVG 20010904//EN"
 "http://www.w3.org/TR/2001/REC-SVG-20010904/DTD/svg10.dtd">
<svg version="1.0" xmlns="http://www.w3.org/2000/svg"
 width="1024.000000pt" height="1024.000000pt" viewBox="0 0 1024.000000 1024.000000"
 preserveAspectRatio="xMidYMid meet">

<g transform="translate(0.000000,1024.000000) scale(0.100000,-0.100000)"
fill="#000000" stroke="none">
<path d="M1873 7449 c-94 -18 -165 -85 -195 -183 -13 -47 -21 -3445 -7 -3520
18 -100 59 -160 139 -202 29 -15 67 -19 215 -24 l180 -5 13 -105 c35 -291 172
-523 397 -675 238 -159 518 -203 790 -123 368 108 632 433 662 814 3 45 10 88
14 96 7 11 218 13 1191 13 l1183 0 8 -70 c20 -170 45 -265 96 -368 129 -263
330 -426 613 -499 100 -25 308 -30 403 -9 244 54 441 182 581 378 88 122 141
268 165 456 7 53 13 97 13 98 1 1 51 4 112 8 100 6 116 10 160 37 62 37 107
104 122 179 9 41 12 257 12 725 0 721 -1 734 -54 819 -34 53 -61 72 -276 190
-101 57 -201 116 -221 131 -24 19 -156 212 -385 560 -192 292 -363 548 -381
569 -46 55 -129 108 -212 136 -73 25 -74 25 -476 25 l-403 0 -6 178 c-7 160
-10 182 -32 229 -28 59 -69 97 -132 125 -42 19 -97 20 -2145 22 -1156 2 -2121
0 -2144 -5z m2907 -869 c119 -15 191 -36 295 -85 272 -130 357 -399 216 -687
-216 -442 -875 -855 -1546 -972 -115 -20 -176 -25 -340 -25 -188 -1 -207 0
-315 28 -165 41 -250 86 -356 191 -272 269 -146 689 313 1037 43 33 98 72 121
87 l44 27 66 -26 c200 -79 386 -217 547 -406 102 -119 159 -137 234 -73 64 54
50 136 -43 251 -114 141 -260 264 -430 361 l-87 50 48 22 c60 27 326 116 374
125 29 5 51 -1 121 -33 169 -78 317 -189 474 -356 83 -88 94 -96 128 -96 77 0
125 53 112 124 -17 87 -247 316 -413 412 -18 10 -33 21 -33 25 0 21 339 35
470 19z m2355 -59 c54 -25 90 -66 171 -196 37 -60 128 -204 202 -320 230 -360
226 -353 212 -370 -11 -13 -98 -15 -701 -15 l-689 0 0 460 0 460 383 0 c351 0
385 -2 422 -19z m-3805 -2295 c36 -9 107 -36 157 -61 78 -38 108 -61 185 -138
139 -137 193 -245 219 -434 15 -106 3 -207 -37 -325 -102 -302 -366 -501 -684
-516 -133 -6 -233 17 -370 85 -80 39 -109 60 -185 137 -154 155 -218 315 -219
551 -1 110 3 141 22 200 44 132 137 267 250 361 99 82 279 154 417 166 50 5
176 -9 245 -26z m4169 19 c152 -19 292 -87 409 -199 188 -181 253 -344 232
-585 -17 -199 -69 -326 -189 -461 -99 -112 -220 -184 -379 -227 -86 -23 -110
-25 -212 -20 -206 9 -344 71 -496 222 -77 77 -98 106 -138 185 -64 131 -90
251 -82 385 7 117 22 181 69 279 50 104 155 227 254 294 98 67 233 117 348
129 28 3 51 6 52 7 3 3 77 -2 132 -9z"/>
<path d="M3018 3871 c-71 -23 -112 -48 -165 -103 -85 -87 -124 -211 -105 -335
21 -145 95 -247 222 -307 60 -29 73 -31 170 -31 97 0 110 2 170 31 82 39 124
75 167 141 74 116 83 285 21 407 -26 52 -100 130 -152 160 -96 56 -222 70
-328 37z"/>
<path d="M7305 3880 c-255 -63 -383 -341 -267 -578 35 -72 125 -154 199 -182
206 -79 432 7 521 198 44 95 42 260 -4 353 -21 43 -84 112 -132 147 -83 59
-222 86 -317 62z"/>
</g>
</svg>
